# xmcd CD database file
#
# Track frame offsets:
#	150
#	16590
#	33335
#	47342
#	62945
#	75350
#	94825
#
# Disc length: 1424 seconds
#
# Revision: 0
# Processed by: cddbd v1.5.1PL2 Copyright (c) Steve Scherf et al.
# Submitted via: CDex 1.51
#
DISCID=43058e07
DTITLE=Bernard Lachance - While I Remember You
DYEAR=2005
DGENRE=New Age
TTITLE0=Rainfall
TTITLE1=Here's to You
TTITLE2=While I Remember You
TTITLE3=Babe
TTITLE4=Simply Meant To Be
TTITLE5=Les Moulins de Mon Coeur
TTITLE6=Nessun Dorma
EXTD=YEAR: 2005
EXTT0=
EXTT1=
EXTT2=
EXTT3=
EXTT4=
EXTT5=
EXTT6=
PLAYORDER=
